<svg width="32" height="35" viewBox="0 0 32 35" fill="none" xmlns="http://www.w3.org/2000/svg">
<g clip-path="url(#clip0_337_2552)">
<path d="M29.598 18.1468C28.9911 17.4821 28.2851 16.9364 27.5107 16.5337V9.71587C27.5108 9.66289 27.5031 9.61019 27.488 9.55987C27.4459 9.41358 27.3503 9.2932 27.2241 9.22758L13.9542 2.71562C13.829 2.65485 13.6864 2.65485 13.5611 2.71562L0.294091 9.23223C0.165953 9.30052 0.0693362 9.42425 0.0273074 9.57389C-0.0323163 9.71744 0.0273074 25.1299 0.00741207 25.2844C0.00753642 25.4925 0.118577 25.6811 0.291231 25.7664L13.5583 32.2846C13.6836 32.345 13.8261 32.345 13.9513 32.2846L18.9928 29.8165C26.2096 37.2849 36.3876 26.0957 29.598 18.1468ZM7.81302 13.8939V19.1047L5.71015 18.0719V12.8596L7.81302 13.8939ZM20.3976 7.03872L8.31251 12.9781C7.8599 12.755 6.86376 12.2651 6.41823 12.0421L18.5047 6.10425L20.3976 7.03872ZM13.7641 15.6522L9.49305 13.5585L21.5796 7.62066L25.8463 9.71594L13.7641 15.6522ZM13.7641 3.77963L17.3299 5.5301L5.23763 11.4679L1.78394 9.77206L1.67041 9.71587L13.7641 3.77963ZM0.970904 24.9412V10.5334L4.74815 12.3868V18.4167C4.74771 18.6253 4.85888 18.8147 5.03191 18.9003L8.0982 20.4059C8.34174 20.5247 8.6268 20.4041 8.73492 20.1364C8.76215 20.069 8.77632 19.9961 8.77645 19.9222V14.3713L13.2759 16.5742V30.9851L0.970904 24.9412ZM14.2408 16.5742L26.5473 10.5334V16.1108C23.077 14.9235 19.331 16.6348 17.6477 20.1765L17.0986 18.7068C16.9983 18.4362 16.7175 18.3064 16.4714 18.4166C16.2253 18.5269 16.1072 18.8357 16.2075 19.1062L17.2206 21.8255C17.322 22.0958 17.6031 22.2248 17.8491 22.1142L20.3209 20.9987C20.5633 20.879 20.6715 20.566 20.5626 20.2995C20.4588 20.0455 20.1937 19.9235 19.9562 20.0205L18.4933 20.6788C20.0104 17.47 23.4571 15.9965 26.5472 17.2356V24.9411L14.2408 30.985L14.2408 16.5742ZM28.9183 29.0552C26.4634 31.7318 22.5402 31.8533 19.9521 29.3329L27.2255 25.7602C27.3984 25.6743 27.5094 25.4851 27.5094 25.2765V17.7256C30.6553 19.7027 31.7479 24.1096 29.9496 27.5686C29.6664 28.1134 29.3197 28.6152 28.9184 29.0614L28.9183 29.0552Z" fill="black"/>
</g>
<defs>
<clipPath id="clip0_337_2552">
<rect width="31.8326" height="35" fill="white"/>
</clipPath>
</defs>
</svg>
