<svg width="34" height="34" viewBox="0 0 34 34" fill="none" xmlns="http://www.w3.org/2000/svg">
<g clip-path="url(#clip0_337_2572)">
<path d="M29.076 9.00043V6.58447C29.076 5.32314 28.0559 4.30272 26.7943 4.30272C26.4003 4.30272 26.0295 4.40306 25.7059 4.57954C25.4092 3.66353 24.5482 2.99886 23.5346 2.99886C23.1407 2.99886 22.7699 3.0992 22.4462 3.27568C22.1495 2.35967 21.2885 1.69501 20.275 1.69501C19.6371 1.69501 19.0597 1.95858 18.6452 2.38208C18.2306 1.95858 17.6533 1.69501 17.0153 1.69501C15.7571 1.69501 14.7336 2.71848 14.7336 3.97676V7.10143C13.8099 7.37544 12.9983 7.93315 12.4063 8.71088C10.5595 8.936 9.24134 9.15755 8.41064 9.38318C7.40932 8.07474 5.602 7.73019 4.1917 8.54331L0.323163 10.8027C0.123001 10.9195 0 11.134 0 11.3657C0 11.5974 0.123001 11.8116 0.322908 11.9288L4.19475 14.1906C5.51007 14.949 7.22597 14.7086 8.26829 13.5196C9.06512 13.7473 10.3249 13.9681 12.1503 14.2006C12.3365 14.5034 12.5575 14.7835 12.8104 15.0361L15.083 17.3087C15.6985 17.9242 16.0374 18.7427 16.0374 19.6134V21.2529H15.7115C14.4532 21.2529 13.4297 22.2763 13.4297 23.5346C13.4297 24.443 13.9635 25.2289 14.7336 25.5958V31.0318C14.7336 31.3919 15.0254 31.6837 15.3855 31.6837H28.4241C28.7842 31.6837 29.076 31.3919 29.076 31.0318V25.5958C29.8461 25.2289 30.3799 24.443 30.3799 23.5346C30.3799 22.2763 29.3564 21.2529 28.0981 21.2529H27.7722V19.4509C27.7722 18.6439 27.9537 17.831 28.297 17.1006C28.8211 15.9868 29.0758 14.9681 29.076 13.9872C31.9695 13.3959 33.3787 12.572 33.3787 11.4739C33.3787 10.0117 30.5879 9.33149 29.076 9.00043ZM26.7943 5.60658C27.3349 5.60658 27.7722 6.04357 27.7722 6.58447V9.19219C27.7722 9.73894 27.3257 10.1701 26.7943 10.1701C26.2552 10.1701 25.8164 9.7313 25.8164 9.19219V6.58447C25.8164 6.04536 26.2552 5.60658 26.7943 5.60658ZM23.5346 4.30272C24.0737 4.30272 24.5125 4.7415 24.5125 5.28061V8.54026C24.5125 9.07937 24.0737 9.51815 23.5346 9.51815C22.9963 9.51815 22.5567 9.08319 22.5567 8.54026V5.28061C22.5567 4.7415 22.9955 4.30272 23.5346 4.30272ZM20.275 2.99886C20.8141 2.99886 21.2529 3.43764 21.2529 3.97676V7.18623C20.8984 7.00874 20.4991 6.91044 20.0794 6.91044H19.2971V3.97676C19.2971 3.43764 19.7359 2.99886 20.275 2.99886ZM16.0374 3.97676C16.0374 3.43764 16.4762 2.99886 17.0153 2.99886C17.5545 2.99886 17.9932 3.43764 17.9932 3.97676V6.91044H16.0374V3.97676ZM11.5862 12.8106C10.4332 12.6515 9.54566 12.4961 8.93117 12.3467C9.03049 12.0314 9.08193 11.7011 9.08193 11.3657C9.08193 11.1009 9.04933 10.8365 8.98592 10.5803C9.60576 10.4301 10.5065 10.2755 11.68 10.1181C11.5442 10.5544 11.4739 11.0105 11.4739 11.4739V11.8096C11.4739 12.146 11.5124 12.4821 11.5862 12.8106ZM4.84948 13.063L1.94433 11.3657L4.84617 9.67095C6.13959 8.9253 7.77807 9.85328 7.77807 11.3657C7.77807 12.8562 6.1541 13.8155 4.84948 13.063ZM16.0048 16.3868L13.7323 14.1142C13.4919 13.8738 13.2917 13.5991 13.1371 13.2976C12.9021 12.8384 12.7778 12.324 12.7778 11.8098V11.4739C12.7778 9.69539 14.2143 8.21429 16.0374 8.21429H20.0794C20.7851 8.21429 21.3833 8.79084 21.3833 9.51815C21.3833 10.2371 20.7983 10.822 20.0794 10.822H16.1691C15.8167 10.822 15.5279 11.1021 15.5174 11.4546C15.507 11.8068 15.7785 12.1037 16.1304 12.1246C19.0259 12.2978 20.479 14.9363 19.7733 17.2007C19.6661 17.5445 19.8578 17.91 20.2016 18.0172C20.5452 18.1244 20.9109 17.9324 21.0178 17.5888C21.3107 16.6494 21.3249 15.647 21.0884 14.731C23.4659 14.7096 25.7904 14.5319 27.765 14.2222C27.7266 14.9391 27.5139 15.7018 27.1169 16.5457C26.6927 17.449 26.4683 18.4536 26.4683 19.4509V21.2529H17.3413V19.6134C17.3413 18.3943 16.8666 17.2486 16.0048 16.3868ZM29.076 23.5346C29.076 24.0737 28.6372 24.5125 28.0981 24.5125H24.5125C24.1524 24.5125 23.8606 24.8043 23.8606 25.1644C23.8606 25.5245 24.1524 25.8164 24.5125 25.8164H27.7722V30.3799H16.0374V25.8164H19.2971C19.6572 25.8164 19.949 25.5245 19.949 25.1644C19.949 24.8043 19.6572 24.5125 19.2971 24.5125H15.7115C15.1724 24.5125 14.7336 24.0737 14.7336 23.5346C14.7336 22.9955 15.1724 22.5567 15.7115 22.5567H28.0981C28.6372 22.5567 29.076 22.9955 29.076 23.5346ZM28.3041 12.8089C26.125 13.2092 23.3892 13.4297 20.6009 13.4297C20.5849 13.4297 20.5686 13.4295 20.5526 13.4295C20.2668 12.9344 19.9067 12.4951 19.4881 12.1259H20.0794C21.1477 12.1259 22.0673 11.48 22.4699 10.5587C22.7903 10.7275 23.1534 10.822 23.5346 10.822C24.0276 10.822 24.4845 10.6641 24.8581 10.3972C25.2615 11.0431 25.9783 11.4739 26.7943 11.4739C27.6461 11.4739 28.4114 10.9957 28.802 10.275C31.072 10.7708 31.888 11.2789 32.0573 11.4879C31.9027 11.7123 31.0005 12.3143 28.3041 12.8089Z" fill="black"/>
</g>
<defs>
<clipPath id="clip0_337_2572">
<rect width="33.3787" height="33.3787" fill="white"/>
</clipPath>
</defs>
</svg>
