<svg width="34" height="34" viewBox="0 0 34 34" fill="none" xmlns="http://www.w3.org/2000/svg">
<path d="M26.1605 0H7.83946C3.50985 0 0 3.50985 0 7.83946V26.1605C0 30.4902 3.50985 34 7.83946 34H26.1605C30.4902 34 34 30.4902 34 26.1605V7.83946C34 3.50985 30.4902 0 26.1605 0Z" fill="url(#paint0_linear_318_1891)"/>
<path d="M22.6469 6.34664C23.9762 6.35202 25.2495 6.88513 26.1895 7.82984C27.1294 8.77455 27.6598 10.0543 27.6652 11.3903V22.6097C27.6598 23.9457 27.1294 25.2255 26.1895 26.1702C25.2495 27.1149 23.9762 27.648 22.6469 27.6534H11.3531C10.0238 27.648 8.75049 27.1149 7.81054 26.1702C6.8706 25.2255 6.34017 23.9457 6.33482 22.6097V11.3903C6.34017 10.0543 6.8706 8.77455 7.81054 7.82984C8.75049 6.88513 10.0238 6.35202 11.3531 6.34664H22.6469ZM22.6469 4.00076H11.3531C7.3091 4.00076 4 7.3304 4 11.3911V22.6097C4 26.6741 7.31287 30 11.3531 30H22.6469C26.6909 30 30 26.6704 30 22.6097V11.3903C30 7.32586 26.6909 4 22.6469 4V4.00076Z" fill="white"/>
<path d="M17 12.4418C17.9015 12.4418 18.7828 12.7091 19.5324 13.21C20.282 13.7108 20.8663 14.4227 21.2113 15.2556C21.5563 16.0885 21.6465 17.0051 21.4706 17.8893C21.2948 18.7735 20.8606 19.5857 20.2232 20.2232C19.5857 20.8606 18.7735 21.2948 17.8893 21.4706C17.0051 21.6465 16.0886 21.5563 15.2556 21.2113C14.4227 20.8663 13.7108 20.282 13.21 19.5324C12.7091 18.7828 12.4418 17.9015 12.4418 17C12.4432 15.7915 12.9239 14.633 13.7785 13.7785C14.633 12.9239 15.7915 12.4432 17 12.4418ZM17 10C15.6155 10 14.2622 10.4105 13.111 11.1797C11.9599 11.9489 11.0627 13.0421 10.5328 14.3212C10.003 15.6003 9.86441 17.0078 10.1345 18.3656C10.4046 19.7235 11.0713 20.9708 12.0503 21.9497C13.0292 22.9287 14.2765 23.5954 15.6344 23.8655C16.9922 24.1356 18.3997 23.997 19.6788 23.4672C20.9579 22.9373 22.0511 22.0401 22.8203 20.889C23.5895 19.7378 24 18.3845 24 17C24 15.1435 23.2625 13.363 21.9497 12.0503C20.637 10.7375 18.8565 10 17 10Z" fill="white"/>
<path d="M23.5 12C24.3284 12 25 11.3284 25 10.5C25 9.67157 24.3284 9 23.5 9C22.6716 9 22 9.67157 22 10.5C22 11.3284 22.6716 12 23.5 12Z" fill="white"/>
<defs>
<linearGradient id="paint0_linear_318_1891" x1="22.2836" y1="35.4271" x2="11.7164" y2="-1.42709" gradientUnits="userSpaceOnUse">
<stop stop-color="#FFDB73"/>
<stop offset="0.08" stop-color="#FDAD4E"/>
<stop offset="0.15" stop-color="#FB832E"/>
<stop offset="0.19" stop-color="#FA7321"/>
<stop offset="0.23" stop-color="#F6692F"/>
<stop offset="0.37" stop-color="#E84A5A"/>
<stop offset="0.48" stop-color="#E03675"/>
<stop offset="0.55" stop-color="#DD2F7F"/>
<stop offset="0.68" stop-color="#B43D97"/>
<stop offset="0.97" stop-color="#4D60D4"/>
<stop offset="1" stop-color="#4264DB"/>
</linearGradient>
</defs>
</svg>
