<svg width="34" height="34" viewBox="0 0 34 34" fill="none" xmlns="http://www.w3.org/2000/svg">
<g clip-path="url(#clip0_318_1896)">
<path d="M16.9999 33.9999C26.3886 33.9999 33.9996 26.3889 33.9996 17.0002C33.9996 7.61151 26.3886 0.000488281 16.9999 0.000488281C7.61127 0.000488281 0.000244141 7.61151 0.000244141 17.0002C0.000244141 26.3889 7.61127 33.9999 16.9999 33.9999Z" fill="#CB2027"/>
<path d="M18.3722 22.7643C17.087 22.6649 16.547 22.0276 15.5391 21.4158C14.9852 24.3222 14.3082 27.1083 12.303 28.5638C11.6833 24.171 13.2115 20.8716 13.9212 17.3694C12.7115 15.333 14.0667 11.2341 16.6182 12.2441C19.7586 13.486 13.8994 19.8161 17.8328 20.6067C21.9392 21.4322 23.6156 13.4814 21.0689 10.8953C17.3894 7.16162 10.3587 10.8105 11.2233 16.1554C11.4339 17.4621 12.7842 17.8588 11.7627 19.6618C9.40778 19.1403 8.70534 17.283 8.79565 14.8069C8.94141 10.7538 12.4375 7.91587 15.9443 7.52314C20.3792 7.02677 24.5417 9.15165 25.1162 13.3232C25.7626 18.0315 23.1141 23.1304 18.3722 22.7643Z" fill="#F1F2F2"/>
</g>
<defs>
<clipPath id="clip0_318_1896">
<rect width="34" height="34" fill="white"/>
</clipPath>
</defs>
</svg>
