<svg width="34" height="34" viewBox="0 0 34 34" fill="none" xmlns="http://www.w3.org/2000/svg">
<path d="M28.3509 0H5.65318C2.53102 0 0 2.53102 0 5.65318V28.3509C0 31.4731 2.53102 34.0041 5.65318 34.0041H28.3509C31.4731 34.0041 34.0041 31.4731 34.0041 28.3509V5.65318C34.0041 2.53102 31.4731 0 28.3509 0Z" fill="black"/>
<path d="M27.6009 14.2191V9.68467C21.6736 9.43438 21.4829 4.04817 21.4829 3.54204V3.50391H16.9016V21.1642C16.9011 21.9274 16.6599 22.671 16.2125 23.2891C15.765 23.9073 15.1339 24.3687 14.4091 24.6075C13.6843 24.8463 12.9026 24.8505 12.1753 24.6195C11.448 24.3884 10.812 23.9339 10.3579 23.3205C9.90383 22.7072 9.65473 21.9662 9.64605 21.2031C9.63737 20.44 9.86955 19.6936 10.3096 19.0701C10.7496 18.4466 11.375 17.9777 12.0969 17.7301C12.8188 17.4826 13.6004 17.469 14.3304 17.6913V13.0146C13.9795 12.9696 13.626 12.947 13.2721 12.9471C11.6469 12.9471 10.0582 13.429 8.70689 14.3319C7.35558 15.2348 6.30237 16.5182 5.68043 18.0197C5.05849 19.5212 4.89576 21.1734 5.21283 22.7673C5.52989 24.3613 6.3125 25.8255 7.46169 26.9747C8.61088 28.1239 10.075 28.9065 11.669 29.2235C13.263 29.5406 14.9152 29.3779 16.4167 28.7559C17.9182 28.134 19.2015 27.0808 20.1044 25.7295C21.0074 24.3782 21.4893 22.7894 21.4893 21.1642C21.4893 21.049 21.4893 20.9346 21.4813 20.821V12.1247C23.5909 14.0547 27.6009 14.2191 27.6009 14.2191Z" fill="#00F6EF"/>
<path d="M28.95 15.3382V10.8014C23.0219 10.5511 22.8321 5.16487 22.8321 4.65874V4.62061H18.2507V22.2809C18.2504 23.0441 18.0094 23.7878 17.562 24.4061C17.1146 25.0244 16.4836 25.4858 15.7588 25.7248C15.034 25.9638 14.2523 25.9681 13.5249 25.7371C12.7975 25.5061 12.1614 25.0517 11.7073 24.4383C11.2531 23.825 11.0039 23.084 10.9952 22.3209C10.9864 21.5578 11.2186 20.8113 11.6586 20.1877C12.0986 19.5642 12.724 19.0952 13.446 18.8477C14.1679 18.6001 14.9495 18.5865 15.6796 18.8088V14.1313C15.3277 14.0872 14.9734 14.0657 14.6188 14.0669C12.9936 14.0674 11.405 14.5498 10.0539 15.4532C8.70289 16.3565 7.65004 17.6402 7.02856 19.1419C6.40708 20.6436 6.24488 22.2959 6.56247 23.8898C6.88006 25.4837 7.66317 26.9477 8.81278 28.0965C9.96238 29.2453 11.4268 30.0275 13.021 30.344C14.6151 30.6605 16.2673 30.4971 17.7686 29.8747C19.2699 29.2522 20.5528 28.1984 21.4553 26.8468C22.3577 25.4951 22.839 23.9062 22.8384 22.2809C22.8384 22.1657 22.8384 22.0513 22.8305 21.9377V13.2414C24.94 15.1714 28.95 15.3382 28.95 15.3382Z" fill="white"/>
<path d="M21.5964 4.62061C21.8173 5.82355 22.4625 7.70423 24.3432 8.80468C22.9058 7.13057 22.8335 4.9702 22.8335 4.65874V4.62061H21.5964Z" fill="#FF004F"/>
<path d="M28.9502 15.3383V10.8015C28.4964 10.7849 28.0447 10.7317 27.5994 10.6426V14.2141C27.5994 14.2141 23.5894 14.0496 21.4815 12.1196V20.8135C21.4862 20.9272 21.4894 21.0416 21.4894 21.1568C21.4892 22.6435 21.0857 24.1023 20.3219 25.3777C19.5581 26.6532 18.4626 27.6976 17.1521 28.3996C15.8416 29.1017 14.3653 29.4351 12.8803 29.3643C11.3953 29.2936 9.95727 28.8213 8.71948 27.9978C9.85782 29.1734 11.3213 29.9823 12.9223 30.3209C14.5233 30.6594 16.189 30.5122 17.7058 29.8981C19.2226 29.2839 20.5214 28.2308 21.4359 26.8738C22.3504 25.5167 22.8388 23.9175 22.8385 22.2811C22.8385 22.1659 22.8385 22.0514 22.8306 21.9378V13.2415C24.9401 15.1715 28.9502 15.3383 28.9502 15.3383Z" fill="#FF004F"/>
<path d="M14.3304 17.6845C13.4556 17.4177 12.5124 17.4909 11.6892 17.8895C10.8661 18.2881 10.2237 18.9827 9.89056 19.8344C9.55739 20.6862 9.55799 21.6322 9.89221 22.4836C10.2264 23.3349 10.8697 24.0286 11.6933 24.4262C11.2432 23.8114 10.998 23.0705 10.9923 22.3086C10.9867 21.5467 11.221 20.8023 11.6619 20.1809C12.1029 19.5595 12.7282 19.0926 13.4492 18.8463C14.1703 18.6 14.9506 18.5869 15.6795 18.8088V14.1313C15.3277 14.0872 14.9734 14.0657 14.6188 14.0669C14.5211 14.0669 14.425 14.0669 14.328 14.0725L14.3304 17.6845Z" fill="#FF004F"/>
</svg>
