<svg width="36" height="21" viewBox="0 0 36 21" fill="none" xmlns="http://www.w3.org/2000/svg">
<path d="M9.72457 17.9527H6.73241C6.3195 17.9527 5.98438 17.6176 5.98438 17.2047C5.98438 16.7918 6.3195 16.4567 6.73241 16.4567H9.72457C10.1375 16.4567 10.4726 16.7918 10.4726 17.2047C10.4726 17.6176 10.1375 17.9527 9.72457 17.9527Z" fill="black"/>
<path d="M34.0356 17.9528H32.1655C31.7526 17.9528 31.4174 17.6177 31.4174 17.2048C31.4174 16.7919 31.7526 16.4568 32.1655 16.4568H33.4147L34.4231 11.0829C34.4096 8.33311 32.0608 5.98429 29.1733 5.98429H24.2617L21.8814 16.4568H26.1812C26.5941 16.4568 26.9292 16.7919 26.9292 17.2048C26.9292 17.6177 26.5941 17.9528 26.1812 17.9528H20.9449C20.7175 17.9528 20.5021 17.8496 20.3599 17.6716C20.2178 17.495 20.164 17.2616 20.2148 17.0402L22.9347 5.07169C23.0125 4.72909 23.3147 4.48822 23.6648 4.48822H29.1733C32.8851 4.48822 35.9057 7.50878 35.9057 11.2205L34.7702 17.3424C34.7043 17.697 34.3961 17.9528 34.0356 17.9528Z" fill="black"/>
<path d="M29.1733 20.9449C27.1117 20.9449 25.4331 19.2678 25.4331 17.2047C25.4331 15.1416 27.1117 13.4645 29.1733 13.4645C31.2349 13.4645 32.9135 15.1416 32.9135 17.2047C32.9135 19.2678 31.2349 20.9449 29.1733 20.9449ZM29.1733 14.9606C27.936 14.9606 26.9292 15.9675 26.9292 17.2047C26.9292 18.442 27.936 19.4488 29.1733 19.4488C30.4106 19.4488 31.4174 18.442 31.4174 17.2047C31.4174 15.9675 30.4106 14.9606 29.1733 14.9606Z" fill="black"/>
<path d="M12.7165 20.9449C10.6549 20.9449 8.97632 19.2678 8.97632 17.2047C8.97632 15.1416 10.6549 13.4645 12.7165 13.4645C14.7781 13.4645 16.4567 15.1416 16.4567 17.2047C16.4567 19.2678 14.7781 20.9449 12.7165 20.9449ZM12.7165 14.9606C11.4793 14.9606 10.4724 15.9675 10.4724 17.2047C10.4724 18.442 11.4793 19.4488 12.7165 19.4488C13.9538 19.4488 14.9606 18.442 14.9606 17.2047C14.9606 15.9675 13.9538 14.9606 12.7165 14.9606Z" fill="black"/>
<path d="M9.72454 4.48825H3.74023C3.32731 4.48825 2.99219 4.15314 2.99219 3.74022C2.99219 3.32731 3.32731 2.99219 3.74023 2.99219H9.72454C10.1375 2.99219 10.4726 3.32731 10.4726 3.74022C10.4726 4.15314 10.1375 4.48825 9.72454 4.48825Z" fill="black"/>
<path d="M9.72403 8.97629H2.24364C1.83073 8.97629 1.49561 8.64117 1.49561 8.22826C1.49561 7.81534 1.83073 7.48022 2.24364 7.48022H9.72403C10.1369 7.48022 10.4721 7.81534 10.4721 8.22826C10.4721 8.64117 10.1369 8.97629 9.72403 8.97629Z" fill="black"/>
<path d="M9.7245 13.4646H0.748039C0.335121 13.4646 0 13.1295 0 12.7165C0 12.3036 0.335121 11.9685 0.748039 11.9685H9.7245C10.1374 11.9685 10.4725 12.3036 10.4725 12.7165C10.4725 13.1295 10.1374 13.4646 9.7245 13.4646Z" fill="black"/>
<path d="M20.9451 17.9528H15.7089C15.296 17.9528 14.9608 17.6177 14.9608 17.2048C14.9608 16.7919 15.296 16.4567 15.7089 16.4567H20.3482L23.7473 1.49607H6.73241C6.3195 1.49607 5.98438 1.16095 5.98438 0.748033C5.98438 0.335119 6.3195 0 6.73241 0H24.6853C24.9127 0 25.1282 0.103229 25.2703 0.281261C25.4124 0.457797 25.4663 0.691183 25.4154 0.912601L21.6752 17.3693C21.5974 17.7119 21.2937 17.9528 20.9451 17.9528Z" fill="black"/>
</svg>
