<svg width="108" height="27" viewBox="0 0 108 27" fill="none" xmlns="http://www.w3.org/2000/svg">
<path fill-rule="evenodd" clip-rule="evenodd" d="M65.3113 15.9108H67.3357V15.6525H58.9897V15.9108H61.1383V21.6104C61.1383 24.2449 59.9663 26.6557 56.2373 26.7246C53.556 26.759 52.0998 25.2954 51.3185 23.2636C50.4661 21.0938 50.1643 18.8037 50.1643 13.6206C50.1643 10.2972 50.4839 5.37246 51.656 3.16838C52.2063 2.13521 53.2185 0.309951 56.184 0.309951C59.913 0.32717 62.0794 3.2717 63.6776 9.43627H63.7663V0H63.6776C62.8963 1.82525 59.9486 0.929851 59.9486 0.929851C59.5971 0.822388 59.2882 0.721305 59.0057 0.628834C57.9755 0.291598 57.2952 0.0688777 56.1662 0.0688777C51.5671 0.0688777 45.2455 4.5976 45.2455 13.9478C45.2455 21.5761 49.969 26.9829 56.4326 26.9829C57.8261 26.9829 58.9318 26.4713 59.9939 25.9799C60.9757 25.5258 61.9203 25.0888 63.0205 25.0888C63.7309 25.0888 65.0627 25.5191 65.2758 26.6386H65.3291L65.3113 15.9108ZM86.3716 1.01583H88.5559H89.1062H91.1661V26.2251H88.8222V26.5007H108V17.0299H107.876C107.435 26.4647 96.6555 26.2816 95.6765 26.2454V13.4999C95.7922 13.4999 95.9099 13.4991 96.0292 13.4983C98.2914 13.4825 101.134 13.4627 101.59 18.9585H101.678V7.85196H101.572C100.968 13.19 97.9138 13.2244 95.6587 13.2244V1.06749C96.0016 1.06749 96.3466 1.06246 96.6928 1.05742C100.829 0.997146 105.091 0.935039 106.828 9.43614H106.935V0.757539H89.1062H88.5735H88.5559H83.637V1.01583H86.052V19.854C85.9633 24.5893 82.4296 26.7417 79.6948 26.6557C74.6873 26.4834 74.1191 21.8858 74.1191 20.9387V1.01583H76.5164V0.757539H67.1937V1.01583H69.6621V18.6313C69.6621 23.3494 72.1303 27 79.3575 27C84.2052 27 86.4249 23.0911 86.3716 19.854V1.01583ZM17.633 0.998611V0.757539H22.5162V0.998611H20.4033L12.5012 26.6384H12.3591L2.415 0.998611H0V0.757539H8.82539V0.998611H6.71228L14.0283 20.6804L20.1012 0.998611H17.633ZM37.9117 13.4829C37.9117 15.3081 37.7695 21.1284 36.1892 24.0212C35.2126 25.8809 33.5078 26.6558 31.5191 26.6558C29.5303 26.6558 27.8256 25.8637 26.8488 24.0212C25.2862 21.1284 25.1264 15.3081 25.1264 13.4829C25.1264 11.6576 25.2684 6.02685 26.8488 3.01345C27.7899 1.15375 29.5303 0.378875 31.5191 0.378875C33.5078 0.378875 35.248 1.17097 36.1892 3.01345C37.7695 6.02685 37.9117 11.6748 37.9117 13.4829ZM42.9547 13.4829C42.9547 5.40695 36.9706 0.120583 31.5191 0.120583C26.0675 0.120583 20.0832 5.40695 20.0832 13.4829C20.0832 21.5588 26.2628 26.9141 31.5191 26.9141C36.793 26.9141 42.9547 21.5588 42.9547 13.4829Z" fill="black"/>
</svg>
